<svg xmlns="http://www.w3.org/2000/svg" viewBox="0 0 100 100">
  <!-- Chef Hat -->
  <path d="M30 30 Q50 15 70 30 L70 35 Q70 40 65 40 L35 40 Q30 40 30 35 Z" fill="#f59e0b" stroke="#92400e" stroke-width="2"/>
  <circle cx="50" cy="28" r="18" fill="#fff" opacity="0.3"/>
  
  <!-- Circle/Bowl -->
  <circle cx="50" cy="65" r="28" fill="#f59e0b" stroke="#92400e" stroke-width="3"/>
  
  <!-- Crossed Utensils (Fork and Spoon) -->
  <g transform="translate(50, 55)">
    <!-- Fork -->
    <path d="M-15 -20 L-15 20 M-15 0 L-8 0 M-15 -5 L-10 -5 M-15 -10 L-10 -10 M-15 -15 L-10 -15" 
          stroke="#92400e" stroke-width="3" stroke-linecap="round"/>
    <!-- Spoon -->
    <ellipse cx="8" cy="-8" rx="4" ry="3" fill="#92400e"/>
    <path d="M8 -5 L8 20" stroke="#92400e" stroke-width="3" stroke-linecap="round"/>
  </g>
  
  <!-- Happy Face -->
  <circle cx="42" cy="62" r="2.5" fill="#92400e"/>
  <circle cx="58" cy="62" r="2.5" fill="#92400e"/>
  <path d="M45 68 Q50 73 55 68" stroke="#92400e" stroke-width="2.5" fill="none" stroke-linecap="round"/>
</svg>
